<svg width="151" height="151" viewBox="0 0 151 151" fill="none" xmlns="http://www.w3.org/2000/svg">
<path opacity="0.5" d="M75.3333 137.571C105.559 137.571 130.062 113.298 130.062 83.3547C130.062 53.4117 105.559 29.1381 75.3333 29.1381C45.1072 29.1381 20.6042 53.4117 20.6042 83.3547C20.6042 113.298 45.1072 137.571 75.3333 137.571Z" fill="white"/>
<path d="M75.3317 54.7405C77.8505 54.7405 79.8924 56.7633 79.8924 59.2585V81.4834L93.7592 95.2202C95.5402 96.9846 95.5402 99.8453 93.7592 101.61C91.9781 103.374 89.0903 103.374 87.3093 101.61L72.1067 86.5495C71.2514 85.7022 70.7709 84.5531 70.7709 83.3548V59.2585C70.7709 56.7633 72.8128 54.7405 75.3317 54.7405Z" fill="white"/>
<path fill-rule="evenodd" clip-rule="evenodd" d="M51.8364 14.6954C53.1714 16.8114 52.522 19.5988 50.386 20.9212L26.0618 35.9814C23.9259 37.3039 21.1121 36.6606 19.7771 34.5447C18.4422 32.4287 19.0915 29.6413 21.2275 28.3188L45.5517 13.2586C47.6876 11.9362 50.5014 12.5794 51.8364 14.6954Z" fill="white"/>
<path fill-rule="evenodd" clip-rule="evenodd" d="M98.8303 14.6954C100.165 12.5794 102.979 11.9362 105.115 13.2586L129.439 28.3188C131.575 29.6413 132.224 32.4287 130.889 34.5447C129.554 36.6606 126.741 37.3039 124.605 35.9814L100.281 20.9212C98.1447 19.5988 97.4954 16.8114 98.8303 14.6954Z" fill="white"/>
</svg>
