<svg width="151" height="151" viewBox="0 0 151 151" fill="none" xmlns="http://www.w3.org/2000/svg">
<g opacity="0.5">
<path d="M138.164 80.1808L135.61 77.6276C130.119 72.1359 121.215 72.1359 115.723 77.6276L110.714 82.6366C108.715 77.3043 103.572 73.5088 97.5417 73.5088C89.7752 73.5088 83.4792 79.8048 83.4792 87.5713V98.5953C80.4173 98.9357 77.4458 100.28 75.098 102.628C69.6062 108.119 69.6062 117.023 75.098 122.515L77.6543 125.071H63.1667C39.5965 125.071 27.8113 125.071 20.489 117.749C13.1667 110.427 13.1667 98.6415 13.1667 75.0713C13.1667 72.3092 13.1785 65.0215 13.1902 62.5713H138.167C138.178 65.0215 138.167 72.3092 138.167 75.0713C138.167 76.8398 138.167 78.5419 138.164 80.1808Z" fill="white"/>
</g>
<path d="M33.4792 100.071C33.4792 97.4825 35.5779 95.3838 38.1667 95.3838H63.1667C65.7555 95.3838 67.8542 97.4825 67.8542 100.071C67.8542 102.66 65.7555 104.759 63.1667 104.759H38.1667C35.5779 104.759 33.4792 102.66 33.4792 100.071Z" fill="white"/>
<path d="M63.1345 25.0713H88.1989C111.83 25.0713 123.645 25.0713 130.987 32.0449C136.272 37.066 137.752 44.2905 138.167 56.3213V62.5713H13.1667V56.3213C13.5811 44.2905 15.061 37.066 20.3468 32.0449C27.688 25.0713 39.5035 25.0713 63.1345 25.0713Z" fill="white"/>
<path d="M122.352 84.2567C124.183 82.4261 127.151 82.4261 128.981 84.2567L141.481 96.7567C143.312 98.5873 143.312 101.555 141.481 103.386C139.651 105.216 136.683 105.216 134.852 103.386L130.354 98.8879V125.071C130.354 127.66 128.256 129.759 125.667 129.759C123.078 129.759 120.979 127.66 120.979 125.071V98.8879L116.481 103.386C114.651 105.216 111.683 105.216 109.852 103.386C108.022 101.555 108.022 98.5873 109.852 96.7567L122.352 84.2567Z" fill="white"/>
<path fill-rule="evenodd" clip-rule="evenodd" d="M97.5417 82.8838C100.131 82.8838 102.229 84.9825 102.229 87.5713V113.755L106.727 109.257C108.558 107.426 111.526 107.426 113.356 109.257C115.187 111.087 115.187 114.055 113.356 115.886L100.856 128.386C99.0257 130.216 96.0577 130.216 94.2271 128.386L81.7271 115.886C79.8965 114.055 79.8965 111.087 81.7271 109.257C83.5577 107.426 86.5257 107.426 88.3562 109.257L92.8542 113.755V87.5713C92.8542 84.9825 94.9528 82.8838 97.5417 82.8838Z" fill="white"/>
</svg>
