<svg width="150" height="151" viewBox="0 0 150 151" fill="none" xmlns="http://www.w3.org/2000/svg">
<path fill-rule="evenodd" clip-rule="evenodd" d="M59.9525 20.073C58.4305 21.3701 57.6694 22.0186 56.8566 22.5634C54.9935 23.8122 52.9011 24.6789 50.7006 25.1133C49.7407 25.3028 48.744 25.3824 46.7505 25.5414C41.7418 25.9411 39.2375 26.141 37.1482 26.879C32.3157 28.5859 28.5146 32.387 26.8077 37.2195C26.0697 39.3088 25.8698 41.8131 25.4702 46.8218C25.3111 48.8153 25.2315 49.812 25.042 50.7719C24.6076 52.9724 23.7409 55.0648 22.4921 56.9279C21.9473 57.7407 21.2988 58.5017 20.0017 60.0238C16.7427 63.848 15.1132 65.7602 14.1576 67.7595C11.9475 72.3835 11.9475 77.7591 14.1576 82.3831C15.1132 84.3823 16.7427 86.2945 20.0017 90.1188C21.2987 91.6407 21.9474 92.4019 22.4921 93.2147C23.7409 95.0778 24.6076 97.1702 25.042 99.3707C25.2315 100.331 25.3111 101.327 25.4702 103.321C25.8698 108.329 26.0697 110.834 26.8077 112.923C28.5146 117.756 32.3157 121.557 37.1482 123.264C39.2375 124.002 41.7418 124.201 46.7505 124.601C48.744 124.76 49.7407 124.84 50.7006 125.029C52.9011 125.464 54.9935 126.33 56.8566 127.579C57.6694 128.124 58.4305 128.772 59.9525 130.07C63.7768 133.329 65.6889 134.958 67.6882 135.914C72.3122 138.124 77.6878 138.124 82.3118 135.914C84.3111 134.958 86.2232 133.329 90.0475 130.07C91.5695 128.772 92.3306 128.124 93.1434 127.579C95.0065 126.33 97.0989 125.464 99.2994 125.029C100.259 124.84 101.256 124.76 103.249 124.601C108.258 124.201 110.762 124.002 112.852 123.264C117.684 121.557 121.485 117.756 123.192 112.923C123.93 110.834 124.13 108.329 124.53 103.321C124.689 101.327 124.768 100.331 124.958 99.3707C125.392 97.1702 126.259 95.0778 127.508 93.2147C128.053 92.4019 128.701 91.6408 129.998 90.1188C133.257 86.2945 134.887 84.3823 135.842 82.3831C138.053 77.7591 138.053 72.3835 135.842 67.7595C134.887 65.7602 133.257 63.8481 129.998 60.0238C128.701 58.5017 128.053 57.7407 127.508 56.9279C126.259 55.0648 125.392 52.9724 124.958 50.7719C124.768 49.812 124.689 48.8153 124.53 46.8218C124.13 41.8131 123.93 39.3088 123.192 37.2195C121.485 32.387 117.684 28.5859 112.852 26.879C110.762 26.141 108.258 25.9411 103.249 25.5414C101.256 25.3824 100.259 25.3028 99.2994 25.1133C97.0989 24.6789 95.0065 23.8122 93.1434 22.5634C92.3306 22.0186 91.5695 21.3701 90.0475 20.073C86.2232 16.814 84.3111 15.1844 82.3118 14.2289C77.6878 12.0188 72.3122 12.0188 67.6882 14.2289C65.6889 15.1844 63.7768 16.814 59.9525 20.073ZM102.334 61.7159C104.321 59.7294 104.321 56.5088 102.334 54.5223C100.348 52.5359 97.1272 52.5359 95.1407 54.5223L64.8267 84.8364L54.8591 74.8688C52.8727 72.8824 49.652 72.8824 47.6655 74.8688C45.6791 76.8553 45.6791 80.0759 47.6655 82.0624L61.2299 95.6267C63.2163 97.6132 66.437 97.6132 68.4235 95.6267L102.334 61.7159Z" fill="white"/>
</svg>
