<svg width="16" height="16" viewBox="0 0 16 16" fill="none" xmlns="http://www.w3.org/2000/svg">
<g clip-path="url(#clip0_215_626)">
<path d="M8.00024 6.25793C8.96606 6.25804 9.74146 7.03428 9.74146 8.00012C9.74135 8.96587 8.96599 9.74123 8.00024 9.74133C7.0344 9.74133 6.25816 8.96594 6.25806 8.00012C6.25806 7.03422 7.03434 6.25793 8.00024 6.25793ZM8.00024 6.71692C7.29115 6.71692 6.71704 7.29103 6.71704 8.00012C6.71715 8.70913 7.29121 9.28333 8.00024 9.28333C8.70918 9.28322 9.28334 8.70906 9.28345 8.00012C9.28345 7.29109 8.70925 6.71702 8.00024 6.71692Z" fill="#6B7280" stroke="#6B7280" stroke-width="0.666667"/>
<path d="M8 3.18298C9.88299 3.18298 11.2857 3.7002 12.3887 4.46423C13.4973 5.2322 14.3194 6.2607 15.0225 7.30896V7.30994C15.2961 7.72041 15.3007 8.25226 15.0186 8.69568C14.3158 9.73034 13.4946 10.757 12.3877 11.5267C11.2843 12.2939 9.88195 12.8168 8 12.8168C6.11805 12.8168 4.71565 12.2939 3.6123 11.5267C2.50316 10.7554 1.68024 9.72661 0.976562 8.68982H0.977539C0.702243 8.2768 0.701227 7.72196 0.976562 7.30896C1.67971 6.26054 2.50257 5.23231 3.61133 4.46423C4.71427 3.7002 6.11701 3.18298 8 3.18298ZM8 3.64197C6.58937 3.64197 5.39046 3.92716 4.30469 4.57263C3.22351 5.2154 2.2781 6.20099 1.34961 7.56189L1.34766 7.56482C1.17301 7.82679 1.17301 8.17297 1.34766 8.43494L1.34961 8.43787C2.27812 9.79884 3.22348 10.7843 4.30469 11.4271C5.39048 12.0726 6.58933 12.3588 8 12.3588C9.41067 12.3588 10.6095 12.0726 11.6953 11.4271C12.7765 10.7843 13.7219 9.79884 14.6504 8.43787L14.6631 8.41931L14.6729 8.3988C14.7947 8.15497 14.7948 7.84477 14.6729 7.60095L14.6631 7.58044L14.6504 7.56189L14.3008 7.0697C13.483 5.96048 12.6414 5.13509 11.6953 4.57263C10.6095 3.92716 9.41063 3.64197 8 3.64197Z" fill="#6B7280" stroke="#6B7280" stroke-width="0.666667"/>
</g>
<defs>
<clipPath id="clip0_215_626">
<rect width="16" height="16" fill="white"/>
</clipPath>
</defs>
</svg>
