<svg width="577" height="842" viewBox="0 0 577 842" fill="none" xmlns="http://www.w3.org/2000/svg">
<g clip-path="url(#clip0_2_2943)">
<rect width="388" height="872" transform="translate(191)" fill="#03368C"/>
<rect width="388" height="872" transform="translate(191)" fill="url(#paint0_linear_2_2943)"/>
<g filter="url(#filter0_iiiii_2_2943)">
<path d="M772.609 184.686L471.369 307.645C461.977 311.431 450.991 307.129 447.093 298.008L375.415 132.371C371.517 123.25 375.947 112.58 385.338 108.794L686.579 -14.1644C695.97 -17.9504 706.956 -13.6481 710.855 -4.52729L782.532 161.11C786.519 170.231 782.001 180.9 772.609 184.686Z" fill="#FE9F0F"/>
<path opacity="0.1" d="M772.609 184.686L471.369 307.645C461.977 311.431 450.991 307.129 447.093 298.008L375.415 132.371C371.517 123.25 375.947 112.58 385.338 108.794L686.579 -14.1644C695.97 -17.9504 706.956 -13.6481 710.855 -4.52729L782.532 161.11C786.519 170.231 782.001 180.9 772.609 184.686Z" fill="black"/>
<path opacity="0.2" d="M483.76 171.388L424.841 195.481C420.322 197.288 415.006 195.223 413.146 190.834L400.653 162.095C398.793 157.707 400.919 152.544 405.438 150.737L464.445 126.645C468.964 124.838 474.28 126.903 476.14 131.291L488.544 160.03C490.494 164.419 488.367 169.581 483.76 171.388Z" fill="#FEF3C7"/>
<path opacity="0.4" d="M512.821 256.401L455.054 279.977C453.37 280.666 451.333 279.891 450.624 278.17L446.282 268.103C445.574 266.468 446.371 264.489 448.054 263.801L505.822 240.224C507.505 239.536 509.543 240.31 510.252 241.945L514.593 252.099C515.302 253.734 514.504 255.713 512.821 256.401Z" fill="white"/>
<path opacity="0.4" d="M587.954 225.683L530.187 249.259C528.503 249.948 526.554 249.173 525.845 247.538L521.415 237.385C520.706 235.75 521.504 233.857 523.187 233.169L580.954 209.592C582.726 208.904 584.676 209.678 585.384 211.313L589.726 221.467C590.523 223.101 589.637 224.994 587.954 225.683Z" fill="white"/>
</g>
<path d="M342.761 361.923C342.761 361.923 343.191 362.115 343.677 362.604C344.106 363.084 344.525 363.905 345.102 364.526C346.199 365.756 347.104 367.067 347.104 367.067L347.149 367.133C347.477 367.536 347.692 367.919 347.251 368.356C346.822 368.738 346.258 368.636 345.873 368.222C345.873 368.222 344.844 366.946 343.736 365.771C343.453 365.433 343.227 365.105 342.933 364.822C342.639 364.54 342.56 364.353 342.368 364.146C342.232 363.95 342.141 363.819 341.994 363.677C341.866 363.54 341.802 363.471 341.802 363.471L341.463 363.122C341.067 362.764 340.999 362.235 341.428 361.854C341.857 361.472 342.377 361.509 342.761 361.923Z" fill="white"/>
<path d="M352.347 371.275L357.122 375.755C357.518 376.114 357.496 376.799 357.066 377.181C356.626 377.618 355.97 377.672 355.574 377.313L350.8 372.833C350.348 372.464 350.426 371.789 350.799 371.397C351.239 370.96 351.952 370.917 352.347 371.275Z" fill="white"/>
<path d="M361.818 380.61L367.163 384.338C367.616 384.707 367.752 385.192 367.368 385.641C366.927 386.079 366.338 386.087 365.874 385.773L360.721 381.677C360.325 381.318 360.098 380.989 360.483 380.541C360.867 380.093 361.309 380.518 361.818 380.61Z" fill="white"/>
<path d="M372.13 389.251L378.001 392.159C378.477 392.418 378.715 392.692 378.375 393.207C378.047 393.667 377.469 393.62 376.993 393.361L371.462 389.649C370.997 389.334 370.635 389.384 370.963 388.924C371.302 388.409 371.62 389.158 372.13 389.251Z" fill="white"/>
<path d="M384.867 392.864L390.446 396.86C390.921 397.118 390.877 398.202 390.549 398.66C390.267 399.183 389.543 399.57 389.057 399.367L383.027 396.438C382.551 396.18 382.731 394.719 383.07 394.205C383.341 393.737 384.358 392.772 384.867 392.864Z" fill="white"/>
<path d="M396.121 401.454L402.508 403.309C402.996 403.514 403.223 403.845 403.008 404.327C402.725 404.855 402.169 404.986 401.613 404.827L395.282 402.402C394.794 402.198 394.522 402.09 394.748 401.552C395.02 401.08 395.667 401.371 396.121 401.454Z" fill="white"/>
<path d="M409.826 404.002L416.073 405.943C416.584 406.036 416.664 406.801 416.505 407.293C416.336 407.84 415.656 408.294 415.1 408.136L408.344 406.68C407.833 406.587 407.969 405.629 408.127 405.138C408.297 404.591 408.218 404.981 409.826 404.002Z" fill="white"/>
<path d="M422.2 407.574L429.21 408.095C429.72 408.187 430.106 408.605 430.061 409.118C429.948 409.677 429.404 410.042 428.882 410.005L421.963 409.327C421.441 409.29 420.988 408.918 421.1 408.359C421.202 407.857 421.69 407.482 422.2 407.574Z" fill="white"/>
<path d="M435.923 408.824L442.987 409.064C443.566 409.111 444.008 409.539 443.907 410.041C443.794 410.599 443.363 410.984 442.785 410.937L435.867 410.55C435.278 410.558 434.824 410.187 434.88 409.618C434.982 409.116 435.684 408.549 435.923 408.824Z" fill="white"/>
<path d="M449.743 410.156L456.897 409.661C457.43 409.642 457.917 409.846 457.872 410.358C457.816 410.926 457.397 411.255 456.875 411.218L449.88 411.222C449.347 411.241 448.758 411.249 448.814 410.681C448.859 410.169 449.289 410.074 449.743 410.156Z" fill="white"/>
<path d="M463.959 408.927L471.027 408.247C471.559 408.228 472.013 408.598 472.025 409.119C472.036 409.64 471.584 410.135 471.04 410.209L464.029 410.9C463.485 410.975 463.043 410.549 463.032 410.028C463.02 409.507 463.45 408.835 463.959 408.927Z" fill="white"/>
<path d="M477.824 407.65C477.824 407.65 479.588 407.048 481.319 406.614C482.993 406.169 484.645 405.547 484.645 405.547L484.724 405.446C485.278 405.316 485.81 405.585 485.89 406.06C486.026 406.544 485.687 407.058 485.178 407.254C485.178 407.254 483.436 407.744 481.626 408.279C479.895 408.714 478.176 409.093 478.176 409.093C477.621 409.223 477.112 409.131 477.044 408.601C476.908 408.117 477.314 407.557 477.824 407.65Z" fill="white"/>
<path d="M491.638 403.048C491.638 403.048 491.761 402.727 492.302 402.367C492.629 402.197 492.843 402.006 493.125 401.771C493.463 401.545 493.756 401.255 494.151 401.039C494.782 400.523 495.47 400.018 495.909 399.582C496.405 399.156 496.698 398.865 496.698 398.865L496.777 398.765C497.138 398.429 497.78 398.43 498.119 398.778C498.458 399.125 498.402 399.688 498.03 400.079C498.03 400.079 497.669 400.415 497.106 400.886C496.599 401.367 495.843 401.918 495.088 402.469C494.72 402.746 494.333 403.02 493.927 403.29C493.589 403.515 493.262 403.685 492.935 403.855C492.394 404.216 492 404.431 492 404.431C491.47 404.736 491.188 404.685 490.928 404.237C490.668 403.79 491.548 403.49 491.638 403.048Z" fill="white"/>
<path d="M501.343 394.024C501.343 394.024 501.063 393.402 501.309 392.762C501.42 392.497 501.286 392.016 501.364 391.631C501.397 391.466 501.33 391.226 501.43 391.016C501.441 390.961 501.43 390.73 501.419 390.785L501.43 390.445C501.463 390.28 501.519 390.005 501.496 389.83C501.489 389.676 501.485 389.504 501.485 389.314C501.54 389.039 501.439 388.678 501.439 388.393C501.372 387.867 501.271 387.507 501.271 387.507L501.282 387.452C501.147 386.971 501.482 386.461 502.041 386.277C502.532 386.138 502.991 386.45 503.125 386.931C503.125 386.931 503.215 387.346 503.316 387.992C503.361 388.343 503.395 388.748 503.418 389.209C503.41 389.436 503.403 389.662 503.396 389.889C503.34 390.164 503.307 390.33 503.262 390.55L503.251 390.89C503.207 391.11 503.151 391.1 503.118 391.265C503.073 391.485 503.01 391.702 502.928 391.915C502.839 392.355 502.705 392.731 502.594 392.996C502.349 393.636 502.215 394.011 502.215 394.011C502.059 394.496 501.947 395.046 501.456 394.9C500.953 394.808 501.254 394.464 501.332 394.079L501.343 394.024Z" fill="white"/>
<path d="M497.964 382.416C497.964 382.416 497.07 381.05 495.973 379.819C494.775 378.799 493.712 377.689 493.712 377.689L493.678 377.568C493.339 377.22 493.383 376.712 493.756 376.32C494.128 375.928 494.252 375.319 495.179 376.233C495.179 376.233 496.423 377.318 497.723 378.413C498.82 379.644 499.872 380.81 499.872 380.81C500.2 381.213 499.94 381.912 499.511 382.294C499.094 382.62 498.235 382.809 497.964 382.416Z" fill="white"/>
<path d="M488.482 373.513C488.482 373.513 487.961 373.766 487.359 373.541C487.087 373.433 486.667 373.473 486.327 373.411C485.941 373.283 485.521 373.322 485.192 373.205C484.795 373.133 484.376 373.172 483.978 373.1C483.638 373.038 483.286 373.032 482.992 373.037C482.39 373.101 481.982 373.085 481.982 373.085L481.801 373.11C481.324 373.139 480.87 372.767 480.915 372.253C480.96 371.74 481.402 371.299 481.935 371.28C481.935 371.28 482.412 371.25 483.115 371.262C483.535 371.222 483.943 371.239 484.34 371.311C484.794 371.393 485.27 371.364 485.713 371.502C486.159 371.622 486.586 371.738 486.995 371.851C487.449 371.934 487.766 372.107 488.107 372.169C488.651 372.384 489.083 372.579 489.083 372.579C489.525 372.717 489.843 372.891 489.628 373.373C489.413 373.856 488.936 373.595 488.482 373.513Z" fill="white"/>
<path d="M478.224 376.186C478.224 376.186 476.929 376.238 476.422 376.719C476.332 376.875 475.69 376.873 475.544 377.018C475.465 377.118 475.093 377.223 475.003 377.378C474.767 377.679 474.418 377.959 474.181 378.26C473.99 378.626 473.743 378.982 473.563 379.293C473.371 379.659 473.079 379.949 472.966 380.215C472.674 380.792 472.37 381.138 472.37 381.138L472.359 381.193C472.145 381.669 471.728 381.995 471.244 381.793C470.804 381.656 470.612 381.163 470.826 380.687C470.826 380.687 471.017 380.321 471.321 379.689C471.445 379.368 471.58 378.992 471.827 378.636C472.03 378.215 472.251 377.797 472.491 377.382C472.795 377.037 473.053 376.626 473.369 376.225C473.627 375.814 473.909 375.578 474.134 375.333C474.584 374.842 474.888 374.496 474.888 374.496C475.26 374.105 476.848 374.335 477.198 374.627C477.592 374.985 478.314 375.745 478.224 376.186Z" fill="white"/>
<path d="M471.966 387.673C471.966 387.673 471.408 389.284 471.297 390.976C471.265 392.568 471.054 394.185 471.054 394.185L470.987 394.23C470.954 394.68 470.518 395.115 469.981 395.188C469.511 395.217 469.063 394.851 469.051 394.335C469.051 394.335 469.05 392.623 469.105 390.921C469.215 389.229 469.382 387.547 469.382 387.547C469.426 387.041 470.242 386.733 470.768 386.714C471.227 386.74 472.066 387.178 471.966 387.673Z" fill="white"/>
<path d="M472.186 400.119C472.186 400.119 472.222 401.954 472.526 403.61C472.977 405.12 473.215 406.82 473.215 406.82L473.136 406.921C473.283 407.347 472.935 407.913 472.44 408.052C471.946 408.191 471.406 407.979 471.327 407.508C471.327 407.508 470.899 405.887 470.47 404.267C470.154 402.666 469.782 401.056 469.782 401.056C469.703 400.584 470.309 399.894 470.86 399.765C471.354 399.626 471.793 400.048 472.186 400.119Z" fill="white"/>
<path d="M475.16 412.289L477.969 418.574C478.183 418.956 477.981 419.663 477.519 419.923C477.069 420.128 476.551 420.092 476.348 419.654L473.63 413.786C473.427 413.349 473.55 412.456 474 412.251C474.518 412.001 475.587 411.05 475.16 412.289Z" fill="white"/>
<path d="M481.313 424.987L484.873 430.215C485.144 430.608 485.009 430.985 484.535 431.301C484.129 431.571 483.576 431.414 483.305 431.021L479.745 425.506C479.53 425.123 479.643 424.857 480.049 424.586C480.523 424.271 480.862 424.905 481.313 424.987Z" fill="white"/>
<path d="M488.8 435.144C488.8 435.144 489.026 435.472 489.399 435.941C489.818 436.475 490.281 437.075 490.801 437.685C491.83 438.96 492.859 440.236 492.859 440.236C493.13 440.629 493.017 441.182 492.668 441.463C492.25 441.789 491.674 441.742 491.391 441.404C491.391 441.404 490.363 440.129 489.334 438.854C488.825 438.188 488.305 437.578 487.944 437.054C487.571 436.585 487.344 436.258 487.344 436.258C487.062 435.92 487.118 435.357 487.535 435.031C487.942 434.76 488.518 434.807 488.8 435.144Z" fill="white"/>
<path d="M497.124 445.231L501.523 450.1C501.805 450.438 501.761 450.946 501.399 451.282C500.982 451.609 500.451 451.627 500.111 451.279L495.769 446.421C495.43 446.073 495.542 445.52 495.903 445.183C496.265 444.847 496.841 444.893 497.124 445.231Z" fill="white"/>
<path d="M506.134 454.819L510.772 459.389C511.123 459.682 511.067 460.246 510.705 460.583C510.344 460.92 509.813 460.939 509.473 460.59L504.778 456.01C504.484 455.727 504.484 455.153 504.845 454.816C505.207 454.48 505.794 454.471 506.134 454.819Z" fill="white"/>
<path d="M515.74 463.779L520.742 468.016C521.093 468.309 521.105 468.828 520.743 469.165C520.427 469.568 519.895 469.587 519.545 469.293L514.474 465.102C514.123 464.808 514.123 464.234 514.484 463.897C514.79 463.55 515.389 463.485 515.74 463.779Z" fill="white"/>
<path d="M526.155 471.921L531.476 475.759C531.827 476.052 531.839 476.572 531.522 476.975C531.274 477.332 530.663 477.452 530.301 477.214L524.911 473.422C524.56 473.128 524.56 472.553 524.865 472.206C525.182 471.803 525.872 471.583 526.155 471.921Z" fill="white"/>
<path d="M536.953 479.623L542.332 483.471C542.694 483.709 542.762 484.239 542.446 484.642C542.14 484.99 541.597 485.064 541.235 484.826L535.857 480.978C535.494 480.739 535.426 480.209 535.742 479.806C536.048 479.459 536.602 479.329 536.953 479.623Z" fill="white"/>
<path d="M547.732 487.433L552.939 491.536C553.301 491.774 553.313 492.294 553.008 492.641C552.635 493.034 552.148 493.118 551.797 492.825L546.579 488.777C546.228 488.484 546.216 487.964 546.521 487.617C546.826 487.27 547.369 487.195 547.732 487.433Z" fill="white"/>
<path d="M558.116 495.74L563.118 499.977C563.469 500.27 563.481 500.789 563.176 501.137C562.814 501.473 562.272 501.548 561.977 501.265L556.986 496.973C556.635 496.679 556.624 496.16 556.985 495.823C557.29 495.476 557.822 495.457 558.116 495.74Z" fill="white"/>
<path d="M568.198 504.389L572.973 508.869C573.256 509.208 573.279 509.671 572.917 510.008C572.556 510.345 572.081 510.374 571.73 510.081L566.955 505.6C566.661 505.317 566.649 504.798 567.011 504.461C567.316 504.114 567.847 504.095 568.198 504.389Z" fill="white"/>
<path d="M577.774 513.512L582.321 518.237C582.615 518.52 582.57 519.028 582.22 519.309C581.859 519.646 581.384 519.675 581.101 519.337L576.486 514.657C576.192 514.374 576.237 513.866 576.598 513.529C576.96 513.193 577.479 513.229 577.774 513.512Z" fill="white"/>
<path d="M341.715 328.798L340.024 352.352L324.391 341.344L341.715 328.798Z" fill="#D97706"/>
<path d="M233.668 308.911L294.973 368.629C296.15 369.761 297.78 370.401 299.432 370.355C301.083 370.308 302.7 369.566 303.819 368.388L363.713 305.116C364.391 304.376 364.605 303.323 364.14 302.434C363.732 301.555 362.781 301.038 361.831 301.097L233.668 308.911Z" fill="white"/>
<path d="M341.687 328.485L233.449 308.612L332.001 338.889L331.837 345.556L341.687 328.485Z" fill="#D97706"/>
<path d="M326.415 345.001L340.096 352.351L332.151 338.979L326.415 345.001Z" fill="#D97706"/>
<g filter="url(#filter1_iiiii_2_2943)">
<g filter="url(#filter2_iiiii_2_2943)">
<path d="M326.217 428.984C377.795 376.583 453.174 552.379 457.27 557.45C636.043 646.193 454.243 729.503 326.277 680.604C292.445 671.79 267.754 642.088 265.024 606.651C259.979 541.392 263.065 441.601 326.217 428.984Z" fill="#1F2A37"/>
<path d="M293.692 507.344C306.928 380.688 428.662 462.549 375.422 551.715L388.183 615.405L340.937 623.796L334.705 571.758C311.557 567.592 293.692 540.366 293.692 507.344Z" fill="#FFB6A6"/>
<mask id="mask0_2_2943" style="mask-type:luminance" maskUnits="userSpaceOnUse" x="293" y="442" width="96" height="182">
<path d="M293.677 507.356C306.913 380.683 428.653 462.568 375.442 551.715L388.168 615.387L340.922 623.814L334.696 571.776C311.548 567.58 293.677 540.348 293.677 507.356Z" fill="white"/>
</mask>
<g mask="url(#mask0_2_2943)">
<path d="M395.305 512.294C395.305 512.294 360.227 503.118 348.653 493.096L360.346 504.868C360.346 504.868 324.377 496.175 316.424 473.839C316.424 473.839 302.239 491.949 300.873 506.981C298.559 488.569 290.19 449.268 324.793 444.318L392.1 499.254L395.305 512.294Z" fill="#FF8370"/>
<path d="M375.422 551.715C375.422 551.715 363.611 568.075 340.938 571.154C340.938 571.154 366.697 578.639 383.257 570.007L375.422 551.715Z" fill="#FF8370"/>
<path d="M323.549 547.61C323.549 547.61 339.337 546.704 344.917 538.132C344.917 538.132 342.483 553.465 333.224 554.914C324.38 556.303 323.549 547.61 323.549 547.61Z" fill="white"/>
</g>
<path d="M332.571 436.892C332.571 436.892 330.197 502.152 388.185 503.842C388.185 503.842 390.382 428.078 332.571 436.892Z" fill="#1F2A37"/>
<path d="M334.469 442.929C334.469 442.929 332.926 483.799 349.842 499.254C349.842 499.254 319.156 482.773 324.083 446.612C324.083 446.612 325.566 442.869 334.469 442.929Z" fill="#1F2A37"/>
<path d="M328.949 442.205C328.949 442.205 303.605 476.797 302.062 499.254C302.062 499.254 301.172 463.274 312.152 442.929L328.949 442.205Z" fill="#1F2A37"/>
</g>
<path d="M482.259 642.873C464.631 587.031 382.486 583.107 382.486 583.107L335.241 591.499C309.659 596.026 232.975 709.34 212.913 735.178L285.562 780.877C289.598 823.8 293.693 860.988 293.693 860.988H463.978C463.978 860.988 499.887 698.654 482.259 642.873Z" fill="#FEAF37"/>
<mask id="mask1_2_2943" style="mask-type:luminance" maskUnits="userSpaceOnUse" x="212" y="583" width="276" height="278">
<path d="M482.252 642.843C464.606 587.019 382.502 583.083 382.502 583.083L335.257 591.505C309.676 596.014 232.991 709.364 212.917 735.178L285.578 780.883C289.596 823.782 293.674 860.988 293.674 860.988H463.989C463.989 860.988 499.898 698.672 482.252 642.843Z" fill="white"/>
</mask>
<g mask="url(#mask1_2_2943)">
<path d="M285.564 780.877L279.569 672.635C279.569 672.635 255.887 744.233 250.07 742.965C244.194 741.697 210.66 725.277 210.66 725.277L206.802 733.97L286.632 793.313L285.564 780.877Z" fill="#FE9F0F"/>
</g>
<path d="M285.561 780.877L102.752 645.227L81.978 680.483L216.71 817.582C236.06 838.47 265.677 837.685 290.131 827.362L285.561 780.877Z" fill="#FFB6A6"/>
<mask id="mask2_2_2943" style="mask-type:luminance" maskUnits="userSpaceOnUse" x="81" y="645" width="210" height="190">
<path d="M285.577 780.883L102.757 645.209L81.9771 680.489L216.698 817.575C236.082 838.463 265.682 837.672 290.142 827.385L285.577 780.883Z" fill="white"/>
</mask>
<g mask="url(#mask2_2_2943)">
<path d="M166.378 780.817C166.378 780.817 222.824 810.156 242.173 810.579C261.522 811.001 279.209 769.528 279.209 769.528L302.713 781.239L300.636 831.104L236.416 843.661L166.378 780.817Z" fill="#FFB0A4"/>
</g>
<path fill-rule="evenodd" clip-rule="evenodd" d="M85.31 589.109L155.129 432.44C156.175 430.093 159.026 428.955 161.402 429.936L177.239 436.478C179.614 437.459 180.722 440.233 179.676 442.58L109.857 599.249C131.568 614.702 139.983 643.422 128.608 668.947C115.402 698.579 80.3317 712.578 50.3405 700.189C20.3493 687.8 6.72118 653.684 19.9266 624.052C31.3016 598.527 58.7181 584.609 85.31 589.109ZM37.5452 631.33C28.6108 651.378 37.807 674.4 58.0981 682.782C78.3892 691.164 102.055 681.717 110.989 661.669C119.923 641.621 110.727 618.599 90.4362 610.217C70.1451 601.835 46.4796 611.282 37.5452 631.33Z" fill="#FE9F0F"/>
<path fill-rule="evenodd" clip-rule="evenodd" d="M96.4651 597.481C123.627 608.677 136.075 639.627 124.055 666.54C112.079 693.354 80.1084 706.113 52.9464 694.917C25.7844 683.722 13.38 652.674 25.3565 625.859C37.3768 598.946 69.3031 586.286 96.4651 597.481ZM54.7889 690.792C79.7621 701.085 108.909 689.373 119.876 664.817C130.888 640.164 119.64 611.802 94.6665 601.509C69.6934 591.215 40.4471 602.887 29.4358 627.541C18.4684 652.096 29.8158 680.499 54.7889 690.792Z" fill="#F6A300"/>
<path d="M98.1458 480.798L94.7836 488.338L107.292 493.501L110.37 494.772L124.07 500.427L145.728 451.861L132.028 446.206L128.95 444.935L116.442 439.771L113.036 447.409L125.544 452.573L122.837 458.643L110.328 453.48L106.966 461.019L119.475 466.183L116.768 472.254L104.259 467.09L100.853 474.727L113.362 479.891L110.654 485.962L98.1458 480.798Z" fill="#FE9F0F"/>
<path d="M160.888 443.368C161.578 441.808 163.511 441.112 165.08 441.765C166.649 442.418 167.461 444.256 166.771 445.815L98.8029 599.42C98.1129 600.98 96.1795 601.676 94.6107 601.023C93.0419 600.37 92.2298 598.532 92.9198 596.973L160.888 443.368Z" fill="#F6A300"/>
<path d="M395.067 842.454C395.067 842.454 428.483 844.809 441.006 834.848C453.589 824.826 484.156 737.23 484.156 737.23C484.156 737.23 473.057 832.916 463.976 860.988H359.276C359.276 860.988 387.825 848.31 395.067 842.454Z" fill="#FE9F0F"/>
<path d="M359.278 777.618L407.354 672.635C407.354 672.635 341.59 748.761 335.536 795.306L359.278 777.618Z" fill="#FE9F0F"/>
<path d="M419.7 785.465C414.062 764.155 388.896 755.462 371.446 768.501L206.206 891.957C197.896 891.957 148.989 892.5 151.304 898.96C153.856 905.963 182.524 907.774 182.524 907.774C182.524 907.774 123.348 940.252 124.773 943.935C126.257 947.678 178.488 969.773 185.432 966.091C191.664 962.77 225.258 929.627 231.49 923.53L384.919 848.431C408.542 838.651 427.891 807.078 419.7 785.465Z" fill="#FFB6A6"/>
<g filter="url(#filter3_iiiii_2_2943)">
<mask id="mask3_2_2943" style="mask-type:luminance" maskUnits="userSpaceOnUse" x="124" y="762" width="298" height="205">
<path d="M419.689 785.436C414.074 764.137 388.908 755.468 371.434 768.526L206.2 891.939C197.896 891.982 148.965 892.513 151.292 898.93C153.832 905.945 182.506 907.793 182.506 907.793C182.506 907.793 123.342 940.271 124.797 943.966C126.245 947.654 178.512 969.804 185.408 966.109C191.664 962.765 225.264 929.634 231.461 923.507L384.943 848.437C408.53 838.663 427.903 807.09 419.689 785.436Z" fill="white"/>
</mask>
<g mask="url(#mask3_2_2943)">
<path d="M385.929 755.522C385.929 755.522 399.461 789.329 397.681 805.629C395.9 821.868 231.491 923.53 231.491 923.53C231.491 923.53 390.677 869.802 401.479 860.082C428.426 826.879 455.966 769.045 385.929 755.522Z" fill="#FFB0A4"/>
</g>
</g>
<path d="M138.129 671.488C138.129 671.488 135.517 643.295 131.778 642.571C127.979 641.846 88.8058 649.936 89.2806 652.109C89.7555 654.282 98.3617 663.519 100.973 663.519C103.585 663.519 121.925 664.243 121.925 664.243L111.301 699.499C111.301 699.499 141.334 693.16 138.129 671.488Z" fill="#FFB6A6"/>
<path d="M121.923 664.244C121.923 664.244 138.601 694.609 106.491 705.415C106.491 705.415 123.288 672.756 121.923 664.244Z" fill="#FFB0A4"/>
</g>
</g>
<defs>
<filter id="filter0_iiiii_2_2943" x="362" y="-27.5387" width="433.985" height="348.558" filterUnits="userSpaceOnUse" color-interpolation-filters="sRGB">
<feFlood flood-opacity="0" result="BackgroundImageFix"/>
<feBlend mode="normal" in="SourceGraphic" in2="BackgroundImageFix" result="shape"/>
<feColorMatrix in="SourceAlpha" type="matrix" values="0 0 0 0 0 0 0 0 0 0 0 0 0 0 0 0 0 0 127 0" result="hardAlpha"/>
<feOffset dx="-12" dy="12"/>
<feGaussianBlur stdDeviation="8"/>
<feComposite in2="hardAlpha" operator="arithmetic" k2="-1" k3="1"/>
<feColorMatrix type="matrix" values="0 0 0 0 1 0 0 0 0 1 0 0 0 0 1 0 0 0 0.24 0"/>
<feBlend mode="overlay" in2="shape" result="effect1_innerShadow_2_2943"/>
<feColorMatrix in="SourceAlpha" type="matrix" values="0 0 0 0 0 0 0 0 0 0 0 0 0 0 0 0 0 0 127 0" result="hardAlpha"/>
<feOffset dx="-12" dy="12"/>
<feGaussianBlur stdDeviation="12"/>
<feComposite in2="hardAlpha" operator="arithmetic" k2="-1" k3="1"/>
<feColorMatrix type="matrix" values="0 0 0 0 1 0 0 0 0 1 0 0 0 0 1 0 0 0 0.48 0"/>
<feBlend mode="overlay" in2="effect1_innerShadow_2_2943" result="effect2_innerShadow_2_2943"/>
<feColorMatrix in="SourceAlpha" type="matrix" values="0 0 0 0 0 0 0 0 0 0 0 0 0 0 0 0 0 0 127 0" result="hardAlpha"/>
<feOffset dy="-4"/>
<feGaussianBlur stdDeviation="12"/>
<feComposite in2="hardAlpha" operator="arithmetic" k2="-1" k3="1"/>
<feColorMatrix type="matrix" values="0 0 0 0 1 0 0 0 0 1 0 0 0 0 1 0 0 0 0.48 0"/>
<feBlend mode="overlay" in2="effect2_innerShadow_2_2943" result="effect3_innerShadow_2_2943"/>
<feColorMatrix in="SourceAlpha" type="matrix" values="0 0 0 0 0 0 0 0 0 0 0 0 0 0 0 0 0 0 127 0" result="hardAlpha"/>
<feOffset dy="-4"/>
<feGaussianBlur stdDeviation="6"/>
<feComposite in2="hardAlpha" operator="arithmetic" k2="-1" k3="1"/>
<feColorMatrix type="matrix" values="0 0 0 0 0 0 0 0 0 0 0 0 0 0 0 0 0 0 0.32 0"/>
<feBlend mode="overlay" in2="effect3_innerShadow_2_2943" result="effect4_innerShadow_2_2943"/>
<feColorMatrix in="SourceAlpha" type="matrix" values="0 0 0 0 0 0 0 0 0 0 0 0 0 0 0 0 0 0 127 0" result="hardAlpha"/>
<feOffset dx="12" dy="-12"/>
<feGaussianBlur stdDeviation="32"/>
<feComposite in2="hardAlpha" operator="arithmetic" k2="-1" k3="1"/>
<feColorMatrix type="matrix" values="0 0 0 0 0 0 0 0 0 0 0 0 0 0 0 0 0 0 0.64 0"/>
<feBlend mode="overlay" in2="effect4_innerShadow_2_2943" result="effect5_innerShadow_2_2943"/>
</filter>
<filter id="filter1_iiiii_2_2943" x="2.88403" y="407.241" width="541.116" height="571.262" filterUnits="userSpaceOnUse" color-interpolation-filters="sRGB">
<feFlood flood-opacity="0" result="BackgroundImageFix"/>
<feBlend mode="normal" in="SourceGraphic" in2="BackgroundImageFix" result="shape"/>
<feColorMatrix in="SourceAlpha" type="matrix" values="0 0 0 0 0 0 0 0 0 0 0 0 0 0 0 0 0 0 127 0" result="hardAlpha"/>
<feOffset dx="-12" dy="12"/>
<feGaussianBlur stdDeviation="8"/>
<feComposite in2="hardAlpha" operator="arithmetic" k2="-1" k3="1"/>
<feColorMatrix type="matrix" values="0 0 0 0 1 0 0 0 0 1 0 0 0 0 1 0 0 0 0.24 0"/>
<feBlend mode="overlay" in2="shape" result="effect1_innerShadow_2_2943"/>
<feColorMatrix in="SourceAlpha" type="matrix" values="0 0 0 0 0 0 0 0 0 0 0 0 0 0 0 0 0 0 127 0" result="hardAlpha"/>
<feOffset dx="-12" dy="12"/>
<feGaussianBlur stdDeviation="12"/>
<feComposite in2="hardAlpha" operator="arithmetic" k2="-1" k3="1"/>
<feColorMatrix type="matrix" values="0 0 0 0 1 0 0 0 0 1 0 0 0 0 1 0 0 0 0.48 0"/>
<feBlend mode="overlay" in2="effect1_innerShadow_2_2943" result="effect2_innerShadow_2_2943"/>
<feColorMatrix in="SourceAlpha" type="matrix" values="0 0 0 0 0 0 0 0 0 0 0 0 0 0 0 0 0 0 127 0" result="hardAlpha"/>
<feOffset dy="-4"/>
<feGaussianBlur stdDeviation="12"/>
<feComposite in2="hardAlpha" operator="arithmetic" k2="-1" k3="1"/>
<feColorMatrix type="matrix" values="0 0 0 0 1 0 0 0 0 1 0 0 0 0 1 0 0 0 0.48 0"/>
<feBlend mode="overlay" in2="effect2_innerShadow_2_2943" result="effect3_innerShadow_2_2943"/>
<feColorMatrix in="SourceAlpha" type="matrix" values="0 0 0 0 0 0 0 0 0 0 0 0 0 0 0 0 0 0 127 0" result="hardAlpha"/>
<feOffset dy="-4"/>
<feGaussianBlur stdDeviation="6"/>
<feComposite in2="hardAlpha" operator="arithmetic" k2="-1" k3="1"/>
<feColorMatrix type="matrix" values="0 0 0 0 0 0 0 0 0 0 0 0 0 0 0 0 0 0 0.32 0"/>
<feBlend mode="overlay" in2="effect3_innerShadow_2_2943" result="effect4_innerShadow_2_2943"/>
<feColorMatrix in="SourceAlpha" type="matrix" values="0 0 0 0 0 0 0 0 0 0 0 0 0 0 0 0 0 0 127 0" result="hardAlpha"/>
<feOffset dx="12" dy="-12"/>
<feGaussianBlur stdDeviation="32"/>
<feComposite in2="hardAlpha" operator="arithmetic" k2="-1" k3="1"/>
<feColorMatrix type="matrix" values="0 0 0 0 0 0 0 0 0 0 0 0 0 0 0 0 0 0 0.64 0"/>
<feBlend mode="overlay" in2="effect4_innerShadow_2_2943" result="effect5_innerShadow_2_2943"/>
</filter>
<filter id="filter2_iiiii_2_2943" x="251.385" y="407.241" width="292.615" height="299.86" filterUnits="userSpaceOnUse" color-interpolation-filters="sRGB">
<feFlood flood-opacity="0" result="BackgroundImageFix"/>
<feBlend mode="normal" in="SourceGraphic" in2="BackgroundImageFix" result="shape"/>
<feColorMatrix in="SourceAlpha" type="matrix" values="0 0 0 0 0 0 0 0 0 0 0 0 0 0 0 0 0 0 127 0" result="hardAlpha"/>
<feOffset dx="-12" dy="12"/>
<feGaussianBlur stdDeviation="8"/>
<feComposite in2="hardAlpha" operator="arithmetic" k2="-1" k3="1"/>
<feColorMatrix type="matrix" values="0 0 0 0 1 0 0 0 0 1 0 0 0 0 1 0 0 0 0.24 0"/>
<feBlend mode="overlay" in2="shape" result="effect1_innerShadow_2_2943"/>
<feColorMatrix in="SourceAlpha" type="matrix" values="0 0 0 0 0 0 0 0 0 0 0 0 0 0 0 0 0 0 127 0" result="hardAlpha"/>
<feOffset dx="-12" dy="12"/>
<feGaussianBlur stdDeviation="12"/>
<feComposite in2="hardAlpha" operator="arithmetic" k2="-1" k3="1"/>
<feColorMatrix type="matrix" values="0 0 0 0 1 0 0 0 0 1 0 0 0 0 1 0 0 0 0.48 0"/>
<feBlend mode="overlay" in2="effect1_innerShadow_2_2943" result="effect2_innerShadow_2_2943"/>
<feColorMatrix in="SourceAlpha" type="matrix" values="0 0 0 0 0 0 0 0 0 0 0 0 0 0 0 0 0 0 127 0" result="hardAlpha"/>
<feOffset dy="-4"/>
<feGaussianBlur stdDeviation="12"/>
<feComposite in2="hardAlpha" operator="arithmetic" k2="-1" k3="1"/>
<feColorMatrix type="matrix" values="0 0 0 0 1 0 0 0 0 1 0 0 0 0 1 0 0 0 0.48 0"/>
<feBlend mode="overlay" in2="effect2_innerShadow_2_2943" result="effect3_innerShadow_2_2943"/>
<feColorMatrix in="SourceAlpha" type="matrix" values="0 0 0 0 0 0 0 0 0 0 0 0 0 0 0 0 0 0 127 0" result="hardAlpha"/>
<feOffset dy="-4"/>
<feGaussianBlur stdDeviation="6"/>
<feComposite in2="hardAlpha" operator="arithmetic" k2="-1" k3="1"/>
<feColorMatrix type="matrix" values="0 0 0 0 0 0 0 0 0 0 0 0 0 0 0 0 0 0 0.32 0"/>
<feBlend mode="overlay" in2="effect3_innerShadow_2_2943" result="effect4_innerShadow_2_2943"/>
<feColorMatrix in="SourceAlpha" type="matrix" values="0 0 0 0 0 0 0 0 0 0 0 0 0 0 0 0 0 0 127 0" result="hardAlpha"/>
<feOffset dx="12" dy="-12"/>
<feGaussianBlur stdDeviation="32"/>
<feComposite in2="hardAlpha" operator="arithmetic" k2="-1" k3="1"/>
<feColorMatrix type="matrix" values="0 0 0 0 0 0 0 0 0 0 0 0 0 0 0 0 0 0 0.64 0"/>
<feBlend mode="overlay" in2="effect4_innerShadow_2_2943" result="effect5_innerShadow_2_2943"/>
</filter>
<filter id="filter3_iiiii_2_2943" x="219.491" y="750.367" width="214.118" height="185.164" filterUnits="userSpaceOnUse" color-interpolation-filters="sRGB">
<feFlood flood-opacity="0" result="BackgroundImageFix"/>
<feBlend mode="normal" in="SourceGraphic" in2="BackgroundImageFix" result="shape"/>
<feColorMatrix in="SourceAlpha" type="matrix" values="0 0 0 0 0 0 0 0 0 0 0 0 0 0 0 0 0 0 127 0" result="hardAlpha"/>
<feOffset dx="-12" dy="12"/>
<feGaussianBlur stdDeviation="8"/>
<feComposite in2="hardAlpha" operator="arithmetic" k2="-1" k3="1"/>
<feColorMatrix type="matrix" values="0 0 0 0 1 0 0 0 0 1 0 0 0 0 1 0 0 0 0.24 0"/>
<feBlend mode="overlay" in2="shape" result="effect1_innerShadow_2_2943"/>
<feColorMatrix in="SourceAlpha" type="matrix" values="0 0 0 0 0 0 0 0 0 0 0 0 0 0 0 0 0 0 127 0" result="hardAlpha"/>
<feOffset dx="-12" dy="12"/>
<feGaussianBlur stdDeviation="12"/>
<feComposite in2="hardAlpha" operator="arithmetic" k2="-1" k3="1"/>
<feColorMatrix type="matrix" values="0 0 0 0 1 0 0 0 0 1 0 0 0 0 1 0 0 0 0.48 0"/>
<feBlend mode="overlay" in2="effect1_innerShadow_2_2943" result="effect2_innerShadow_2_2943"/>
<feColorMatrix in="SourceAlpha" type="matrix" values="0 0 0 0 0 0 0 0 0 0 0 0 0 0 0 0 0 0 127 0" result="hardAlpha"/>
<feOffset dy="-4"/>
<feGaussianBlur stdDeviation="12"/>
<feComposite in2="hardAlpha" operator="arithmetic" k2="-1" k3="1"/>
<feColorMatrix type="matrix" values="0 0 0 0 1 0 0 0 0 1 0 0 0 0 1 0 0 0 0.48 0"/>
<feBlend mode="overlay" in2="effect2_innerShadow_2_2943" result="effect3_innerShadow_2_2943"/>
<feColorMatrix in="SourceAlpha" type="matrix" values="0 0 0 0 0 0 0 0 0 0 0 0 0 0 0 0 0 0 127 0" result="hardAlpha"/>
<feOffset dy="-4"/>
<feGaussianBlur stdDeviation="6"/>
<feComposite in2="hardAlpha" operator="arithmetic" k2="-1" k3="1"/>
<feColorMatrix type="matrix" values="0 0 0 0 0 0 0 0 0 0 0 0 0 0 0 0 0 0 0.32 0"/>
<feBlend mode="overlay" in2="effect3_innerShadow_2_2943" result="effect4_innerShadow_2_2943"/>
<feColorMatrix in="SourceAlpha" type="matrix" values="0 0 0 0 0 0 0 0 0 0 0 0 0 0 0 0 0 0 127 0" result="hardAlpha"/>
<feOffset dx="12" dy="-12"/>
<feGaussianBlur stdDeviation="32"/>
<feComposite in2="hardAlpha" operator="arithmetic" k2="-1" k3="1"/>
<feColorMatrix type="matrix" values="0 0 0 0 0 0 0 0 0 0 0 0 0 0 0 0 0 0 0.64 0"/>
<feBlend mode="overlay" in2="effect4_innerShadow_2_2943" result="effect5_innerShadow_2_2943"/>
</filter>
<linearGradient id="paint0_linear_2_2943" x1="12.125" y1="114.684" x2="322.38" y2="817.046" gradientUnits="userSpaceOnUse">
<stop stop-color="#1753B0" stop-opacity="0"/>
<stop offset="0.554933" stop-color="#1753B0"/>
</linearGradient>
<clipPath id="clip0_2_2943">
<rect width="577" height="842" fill="white"/>
</clipPath>
</defs>
</svg>
